<?xml version="1.0"?>
<svg xmlns="http://www.w3.org/2000/svg" id="Capa_1" enable-background="new 0 0 512 512" height="512px" viewBox="0 0 512 512" width="512px"><g><g><path d="m263.377 105.697h30c0 26.829 19.967 49.069 45.818 52.674v-17.175c.001-45.875-37.32-83.196-83.195-83.196s-83.196 37.321-83.196 83.196v17.699h37.375c29.334 0 53.198-23.865 53.198-53.198z" data-original="#000000" class="active-path" data-old_color="#000000" fill="#FFFFFF"/><path d="m115.339 255.584h28.294c-.543-4.736-.829-9.555-.829-14.443v-99.946c0-62.416 50.779-113.195 113.196-113.195s113.196 50.779 113.196 113.196v99.946c0 4.888-.286 9.707-.829 14.443h28.294c22.521 0 40.843-18.322 40.843-40.843v-45.511c0-21.962-17.426-39.922-39.177-40.8-7.355-72.039-68.379-128.431-142.327-128.431s-134.972 56.392-142.327 128.431c-21.751.878-39.177 18.838-39.177 40.8v45.511c0 22.521 18.322 40.842 40.843 40.842z" data-original="#000000" class="active-path" data-old_color="#000000" fill="#FFFFFF"/><path d="m256 330.667c25.537 0 48.42-12.449 63.694-32h-46.479v-30h61.953c2.611-8.676 4.028-17.925 4.028-27.525v-52.572c-25.132-2.219-47.09-15.661-60.818-35.268-15.056 21.504-40.013 35.592-68.198 35.592h-37.375v52.247c-.001 49.365 37.32 89.526 83.195 89.526z" data-original="#000000" class="active-path" data-old_color="#000000" fill="#FFFFFF"/><path d="m340.262 360.892v-40.03c-20.74 24.416-50.829 39.804-84.262 39.804-33.214 0-63.132-15.185-83.857-39.323v39.503l-.144.047c19.688 15.316 52.361 36.25 83.871 36.25 31.652 0 64.542-20.923 84.392-36.251z" data-original="#000000" class="active-path" data-old_color="#000000" fill="#FFFFFF"/><path d="m474.182 404.877-100.297-32.877c-16.977 15.126-66.738 55.143-118.014 55.143-51.349 0-100.716-40.105-117.503-55.226l-100.551 32.96c-22.619 7.416-37.817 28.392-37.817 52.195v54.928h103.286v-52h30v52h245.429v-52h30v52h103.285v-54.928c0-23.803-15.198-44.779-37.818-52.195z" data-original="#000000" class="active-path" data-old_color="#000000" fill="#FFFFFF"/></g></g> </svg>
