<?xml version="1.0"?>
<svg xmlns="http://www.w3.org/2000/svg" id="bold" enable-background="new 0 0 24 24" height="512px" viewBox="0 0 24 24" width="512px" class=""><g><path d="m20.25 0h-16.5c-.41 0-.75.34-.75.75v8.5c0 1.52 1.23 2.75 2.75 2.75h2.51c.81-1.21 2.19-2 3.74-2s2.93.79 3.74 2h2.51c1.52 0 2.75-1.23 2.75-2.75v-8.5c0-.41-.34-.75-.75-.75zm-3.75 6.25c0 .303-.183.577-.463.693-.093.038-.19.057-.287.057-.195 0-.387-.076-.53-.22l-.786-.786-1.425 1.307c-.239.222-.596.263-.881.1l-1.252-.716-2.096 2.095c-.146.147-.338.22-.53.22s-.384-.073-.53-.22c-.293-.293-.293-.768 0-1.061l2.5-2.5c.239-.239.609-.289.902-.121l1.273.728.976-.894-.651-.652c-.214-.214-.279-.537-.163-.817s.39-.463.693-.463h2.5c.414 0 .75.336.75.75z" data-original="#000000" class="active-path" data-old_color="#000000" fill="#FFFFFF"/><circle cx="4" cy="15" r="2" data-original="#000000" class="active-path" data-old_color="#000000" fill="#FFFFFF"/><path d="m6.67 18.4c-1.01.76-1.67 1.98-1.67 3.35v.25h-4.25c-.41 0-.75-.34-.75-.75v-.5c0-1.52 1.23-2.75 2.75-2.75h2.5c.52 0 1.01.15 1.42.4z" data-original="#000000" class="active-path" data-old_color="#000000" fill="#FFFFFF"/><circle cx="20" cy="15" r="2" data-original="#000000" class="active-path" data-old_color="#000000" fill="#FFFFFF"/><path d="m24 20.75v.5c0 .41-.34.75-.75.75h-4.25v-.25c0-1.37-.66-2.59-1.67-3.35.41-.25.9-.4 1.42-.4h2.5c1.52 0 2.75 1.23 2.75 2.75z" data-original="#000000" class="active-path" data-old_color="#000000" fill="#FFFFFF"/><circle cx="12" cy="14.5" r="3" data-original="#000000" class="active-path" data-old_color="#000000" fill="#FFFFFF"/><path d="m14.75 19h-5.5c-1.517 0-2.75 1.233-2.75 2.75v1.5c0 .414.336.75.75.75h9.5c.414 0 .75-.336.75-.75v-1.5c0-1.517-1.233-2.75-2.75-2.75z" data-original="#000000" class="active-path" data-old_color="#000000" fill="#FFFFFF"/><path d="m22.25 1.5h-20.5c-.414 0-.75-.336-.75-.75s.336-.75.75-.75h20.5c.414 0 .75.336.75.75s-.336.75-.75.75z" data-original="#000000" class="active-path" data-old_color="#000000" fill="#FFFFFF"/></g> </svg>
