<svg width="387" height="351" viewBox="0 0 387 351" fill="none" xmlns="http://www.w3.org/2000/svg">
<path d="M280.474 294.849C314.498 294.849 342.081 268.379 342.081 235.725C342.081 203.072 314.498 176.601 280.474 176.601C246.449 176.601 218.867 203.072 218.867 235.725C218.867 268.379 246.449 294.849 280.474 294.849Z" fill="#FF6584"/>
<path d="M281.193 297.815C281.193 339.472 233.69 324.214 175.092 324.214C116.495 324.214 68.9922 339.472 68.9922 297.815C68.9922 256.159 116.495 173.363 175.092 173.363C233.69 173.363 281.193 256.159 281.193 297.815Z" fill="#F54300"/>
<path d="M387 332.747C374.71 330.749 362.892 329.033 351.544 327.599L356.03 319.252C354.517 318.748 347.871 323.528 347.871 323.528L353.758 299.297C346.15 300.178 342.282 324.919 342.282 324.919L333.782 316.554L337.897 325.958C308.045 322.495 278.01 320.681 247.94 320.525L251.78 313.38C250.267 312.876 243.621 317.657 243.621 317.657L249.508 293.426C241.9 294.306 238.032 319.047 238.032 319.047L229.532 310.683L233.89 320.643C224.024 320.833 215.017 321.237 206.852 321.773L208.207 319.252C207.248 318.932 204.224 320.738 202.14 322.102C201.54 322.147 200.952 322.193 200.361 322.239L205.936 299.297C199.729 300.016 196.012 316.61 194.853 322.701C194.036 322.774 193.227 322.848 192.432 322.924L186.018 316.612C191.391 308.612 199.255 302.299 199.255 302.299C189.179 305.175 183.894 309.994 181.133 314.487C180.886 291.522 184.865 268.695 192.886 247.058C192.886 247.058 172.061 290.55 174.718 319.744L175.002 324.383C146.596 321.64 121.619 320.57 100.118 320.525L103.957 313.38C102.445 312.876 95.7984 317.657 95.7984 317.657L101.686 293.426C94.0776 294.306 90.2094 319.047 90.2094 319.047L81.7091 310.683L86.0678 320.643C68.7816 320.917 51.5215 322.042 34.3555 324.014C38.2391 312.884 51.4322 302.299 51.4322 302.299C41.3567 305.175 36.0716 309.994 33.3099 314.487C33.0631 291.522 37.0421 268.695 45.0636 247.058C45.0636 247.058 24.2379 290.55 26.8952 319.744L27.2131 324.928C9.55759 327.354 0.681152 329.878 0.681152 329.878L239.177 332.747C235.018 332.071 230.914 331.429 226.866 330.821L387 332.747ZM185.998 316.643L188.899 323.273C186.562 323.513 184.314 323.761 182.178 324.014C183.132 321.416 184.415 318.94 185.998 316.643Z" fill="#3F3D56"/>
<path d="M314.958 326.65C314.829 326.448 311.792 321.58 310.738 311.472C309.772 302.199 310.394 286.568 318.841 264.763C334.843 223.457 315.153 190.128 314.951 189.796L315.923 189.255C315.974 189.34 321.055 197.837 324.056 211.368C328.022 229.307 326.578 247.959 319.893 265.139C303.918 306.375 315.795 325.896 315.916 326.089L314.958 326.65Z" fill="#3F3D56"/>
<path d="M308.7 187.371C312.731 187.371 315.998 184.235 315.998 180.367C315.998 176.499 312.731 173.363 308.7 173.363C304.67 173.363 301.402 176.499 301.402 180.367C301.402 184.235 304.67 187.371 308.7 187.371Z" fill="#F54300"/>
<path d="M331.717 213.231C335.747 213.231 339.015 210.095 339.015 206.227C339.015 202.359 335.747 199.223 331.717 199.223C327.686 199.223 324.419 202.359 324.419 206.227C324.419 210.095 327.686 213.231 331.717 213.231Z" fill="#3F3D56"/>
<path d="M315.998 230.471C320.029 230.471 323.296 227.335 323.296 223.467C323.296 219.599 320.029 216.463 315.998 216.463C311.968 216.463 308.7 219.599 308.7 223.467C308.7 227.335 311.968 230.471 315.998 230.471Z" fill="#F54300"/>
<path d="M335.085 245.017C339.116 245.017 342.383 241.882 342.383 238.014C342.383 234.145 339.116 231.01 335.085 231.01C331.054 231.01 327.787 234.145 327.787 238.014C327.787 241.882 331.054 245.017 335.085 245.017Z" fill="#F54300"/>
<path d="M310.385 267.645C314.415 267.645 317.683 264.509 317.683 260.641C317.683 256.773 314.415 253.637 310.385 253.637C306.354 253.637 303.087 256.773 303.087 260.641C303.087 264.509 306.354 267.645 310.385 267.645Z" fill="#3F3D56"/>
<path d="M319.366 326.908C319.366 326.908 312.068 309.668 333.962 296.738L319.366 326.908Z" fill="#3F3D56"/>
<path d="M310.391 326.595C310.391 326.595 307.069 308.262 281.363 308.419L310.391 326.595Z" fill="#3F3D56"/>
<path d="M192.373 27.6487C184.368 14.6676 168.53 14.0626 168.53 14.0626C168.53 14.0626 153.098 12.1686 143.198 31.939C133.97 50.3667 121.235 68.1589 141.147 72.4727L144.744 61.729L146.972 73.2725C149.807 73.4683 152.651 73.5149 155.492 73.4123C176.816 72.7515 197.125 73.6056 196.471 66.2617C195.602 56.4991 200.076 40.1392 192.373 27.6487Z" fill="#2F2E41"/>
<path d="M134.673 132.418L132.989 161.51L182.39 166.36L184.074 136.189L167.233 125.953L134.673 132.418Z" fill="#A0616A"/>
<path d="M267.439 196.26C265.958 182.516 207.143 176.278 193.009 174.975L187.724 172.016L186.04 154.776C186.04 154.776 133.832 150.466 129.902 149.928C125.972 149.389 122.604 156.393 122.604 158.009C122.604 159.177 121.87 167.519 118.92 172.463C112.551 177.374 93.1318 192.829 93.1318 198.685C93.1318 205.689 108.57 293.775 108.57 293.775L110.254 312.092L125.972 314.786L124.85 257.678C124.85 257.678 130.463 224.814 122.604 215.655V211.884C122.604 211.884 145.656 206.121 153.78 199.845C156.134 199.36 162.749 198.163 166.403 199.204C166.904 199.487 167.482 199.778 168.124 200.073C168.206 200.145 168.284 200.22 168.356 200.301C168.356 200.301 168.379 200.267 168.42 200.208C178.929 204.929 205.89 210.883 216.915 209.19C225.419 207.945 234.113 209.462 241.616 213.5C235.441 221.043 239.932 242.593 239.932 242.593L240.493 288.926L248.353 298.085H259.019V272.763C259.019 272.763 269.123 211.884 267.439 196.26Z" fill="#2F2E41"/>
<path d="M163.584 63.1882C173.815 63.1882 182.109 55.2283 182.109 45.4093C182.109 35.5904 173.815 27.6305 163.584 27.6305C153.353 27.6305 145.059 35.5904 145.059 45.4093C145.059 55.2283 153.353 63.1882 163.584 63.1882Z" fill="#A0616A"/>
<path d="M152.357 56.723C152.357 56.723 155.163 68.5756 151.234 69.6531C148.125 70.6418 145.118 71.9043 142.252 73.4244L137.761 87.432V101.44L192.214 107.366L193.898 102.517V95.5133L187.723 84.7382L184.916 82.0444C184.916 82.0444 172.566 69.1143 175.373 56.723H152.357Z" fill="#A0616A"/>
<path d="M200.915 99.554C200.915 99.554 202.6 118.41 200.915 127.03C199.231 135.65 199.793 148.581 199.793 148.581L187.442 146.426V117.333L190.249 101.709L200.915 99.554Z" fill="#A0616A"/>
<path d="M170.468 25.1185C176.793 25.1185 181.92 20.1982 181.92 14.1286C181.92 8.05903 176.793 3.13867 170.468 3.13867C164.144 3.13867 159.017 8.05903 159.017 14.1286C159.017 20.1982 164.144 25.1185 170.468 25.1185Z" fill="#2F2E41"/>
<path d="M157.812 11.2364C157.812 8.52212 158.859 5.90398 160.751 3.88628C162.643 1.86858 165.246 0.594059 168.058 0.30825C166.461 0.145029 164.846 0.306055 163.318 0.780862C161.79 1.25567 160.383 2.03364 159.189 3.06425C157.994 4.09485 157.039 5.35503 156.386 6.76295C155.732 8.17086 155.394 9.69501 155.394 11.2364C155.394 12.7778 155.732 14.3019 156.386 15.7098C157.039 17.1177 157.994 18.3779 159.189 19.4085C160.383 20.4391 161.79 21.2171 163.318 21.6919C164.846 22.1667 166.461 22.3277 168.058 22.1645C165.246 21.8787 162.643 20.6042 160.751 18.5865C158.859 16.5688 157.812 13.9506 157.812 11.2364Z" fill="#2F2E41"/>
<path d="M188.835 26.3974L173.188 18.5312L151.58 21.7494L147.11 40.6984L158.238 40.2872L161.347 33.3258V40.1725L166.482 39.9831L169.462 28.8995L171.325 40.6984L189.579 40.3407L188.835 26.3974Z" fill="#2F2E41"/>
<path d="M200.355 166.359H131.867V232.087H200.355V166.359Z" fill="#F2F2F2"/>
<path d="M120.639 90.3953L110.534 130.263C110.534 130.263 106.604 138.883 115.586 144.271C124.568 149.658 144.778 156.662 144.778 156.662C144.778 156.662 162.742 180.367 164.988 170.67C167.233 160.972 151.515 148.581 151.515 148.581L124.007 131.879L134.673 103.864L120.639 90.3953Z" fill="#A0616A"/>
<path d="M193.618 140.499C193.618 140.499 202.039 139.422 201.477 148.58C200.916 157.739 189.688 158.817 189.688 158.817C189.688 158.817 184.636 179.289 177.338 175.518C170.04 171.747 181.268 151.274 181.268 151.274L190.811 144.27L193.618 140.499Z" fill="#A0616A"/>
<path d="M139.445 86.8931L148.427 69.1143L130.463 75.0405C130.463 75.0405 120.358 79.8893 119.797 91.2031C119.235 102.517 132.709 108.443 132.709 108.443C132.709 108.443 134.954 124.606 133.831 126.761C132.709 128.916 133.831 137.536 133.831 137.536C133.831 137.536 155.444 131.879 166.11 138.883C176.777 145.887 185.478 141.846 185.478 141.846C185.478 141.846 184.917 128.377 189.408 126.222C193.899 124.067 197.828 113.831 193.899 107.366C193.899 107.366 202.881 108.443 202.319 100.362C201.758 92.2806 197.267 85.2768 189.969 82.0443C182.671 78.8118 181.864 78.2954 181.864 78.2954L192.215 96.5907V101.439C192.215 101.439 173.892 90.2154 155.764 89.2801C149.85 89.0204 144.042 90.8551 139.445 94.4354L139.445 94.4357V86.8931Z" fill="#2F2E41"/>
<path d="M125.099 294C125.099 294 133.065 297.598 135.408 298.947C137.751 300.296 147.122 297.598 145.248 305.692C143.374 313.787 135.408 321.432 135.408 321.432C135.408 321.432 131.659 325.479 131.659 328.178C131.659 330.876 122.287 351.562 111.041 350.663C99.7951 349.763 101.669 338.97 101.669 338.97L104.012 327.278C104.012 327.278 108.698 307.491 109.635 307.941C110.573 308.391 112.916 311.539 112.916 311.539C112.916 311.539 124.63 307.042 125.099 294Z" fill="#D0CDE1"/>
<path d="M241.928 280.531C241.928 280.531 233.962 284.129 231.619 285.478C229.276 286.827 219.904 284.129 221.778 292.224C223.653 300.318 231.619 307.963 231.619 307.963C231.619 307.963 235.367 312.011 235.367 314.709C235.367 317.407 244.739 338.093 255.985 337.194C267.231 336.295 265.357 325.502 265.357 325.502L263.014 313.809C263.014 313.809 258.328 294.022 257.391 294.472C256.454 294.922 254.111 298.07 254.111 298.07C254.111 298.07 242.396 293.573 241.928 280.531Z" fill="#D0CDE1"/>
</svg>
