<?xml version="1.0"?>
<svg xmlns="http://www.w3.org/2000/svg" xmlns:xlink="http://www.w3.org/1999/xlink" version="1.1" id="Capa_1" x="0px" y="0px" viewBox="0 0 512 512" style="enable-background:new 0 0 512 512;" xml:space="preserve" width="512px" height="512px"><g><g>
	<g>
		<g>
			<circle cx="256" cy="21.333" r="21.333" data-original="#000000" class="active-path" data-old_color="#000000" fill="#FFFFFF"/>
			<path d="M248.458,263.542c2.083,2.083,4.813,3.125,7.542,3.125c2.729,0,5.458-1.042,7.542-3.125     c4.167-4.167,4.167-10.917,0-15.083L50.208,35.125c-4.167-4.167-10.917-4.167-15.083,0c-4.167,4.167-4.167,10.917,0,15.083     L248.458,263.542z" data-original="#000000" class="active-path" data-old_color="#000000" fill="#FFFFFF"/>
			<path d="M338.908,13.892c-5.724-1.962-12.005,1.456-13.713,7.261l-6.017,20.456c-1.618,5.5,1.485,11.109,6.898,12.995     c102.863,35.828,166.869,147.825,135.051,259.841c-23.132,81.437-94.255,142.925-178.283,153.238     C153.279,483.584,42.667,382.47,42.667,256c0-34.741,8.662-69.092,25.128-99.984c2.696-5.059,1.154-11.275-3.771-14.209     l-18.306-10.907c-5.198-3.097-12.122-1.346-14.994,3.98C10.595,172.207,0,213.848,0,256c0,151.848,132.9,273.246,288.489,253.985     c95.192-11.784,177.336-78.254,208.917-168.825C546.139,201.403,467.643,58.03,338.908,13.892z" data-original="#000000" class="active-path" data-old_color="#000000" fill="#FFFFFF"/>
		</g>
	</g>
</g></g> </svg>
