<svg width="564" height="598" viewBox="0 0 564 598" fill="none" xmlns="http://www.w3.org/2000/svg">
<path fill-rule="evenodd" clip-rule="evenodd" d="M347.178 42.9279C399.904 43.8698 451.82 -16.5054 499.151 6.7484C546.633 30.077 543.347 100.719 563.967 149.438C579.959 187.221 588.746 226.432 607.563 262.891C632.857 311.899 689.77 346.511 694.058 401.495C698.25 455.24 669.639 511.395 629.774 547.684C590.279 583.637 532.49 591.025 479.405 596.893C434.632 601.841 392.212 579.973 347.178 578.92C303.366 577.896 260.745 599.974 217.895 590.781C171.414 580.808 129.495 555.722 93.6273 524.522C54.2967 490.31 5.23293 453.39 0.291595 401.496C-4.77039 348.336 57.607 310.989 68.3129 258.672C79.3545 204.715 38.9441 145.206 62.8873 95.607C86.4207 46.8569 139.342 11.135 192.569 1.27201C245.716 -8.57613 293.135 41.9626 347.178 42.9279Z" fill="#FEF4F4"/>
<path d="M227.004 439.01C216.725 439.046 206.449 439.355 196.19 440.771C192.327 441.309 188.539 442.484 184.662 442.954C176.918 443.9 169.312 445.644 161.54 446.482C155.282 447.137 148.997 447.522 142.756 448.356C136.715 449.16 130.618 448.928 124.623 447.666C120.326 446.711 116.022 446.177 111.78 444.644C107.053 442.932 101.921 441.704 96.9873 441.748C89.9623 441.811 83.1231 441.82 76.4009 444.846C74.0512 445.908 71.1614 447.652 69.369 449.88C65.2682 454.986 64.7144 467.698 68.8083 473.006C75.7059 481.912 90.4267 485.409 100.114 485.557C110.71 485.741 121 484.763 131.613 484.19C141.47 483.656 151.305 482.899 161.199 482.925C181.37 482.979 201.54 482.925 221.675 481.253C240.597 479.685 259.556 480.222 278.512 480.222C297.953 480.222 317.259 480.411 336.559 483.616C344.97 485.014 353.537 485.503 361.989 486.48C369.558 487.377 376.83 486.48 384.368 485.655C390.715 485.006 396.929 482.939 402.739 479.546C407.29 476.856 415.406 468.465 416.803 462.023C420.69 443.976 361.611 444.389 352.542 444.451C342.397 444.496 332.169 444.9 322.031 444.429C317.768 444.227 313.564 443.192 309.402 442.058C305.239 440.924 301.08 441.22 296.876 440.744C279.344 438.768 261.775 439.054 244.185 439.054C238.464 439.054 232.736 439.01 227.004 439.01Z" fill="#F1F2F2"/>
<path d="M297.06 307.538C297.208 307.516 297.36 307.516 297.508 307.538C298.853 307.744 299.436 308.659 300.646 309.224C301.197 309.475 302.515 308.636 302.694 309.891C302.766 310.34 302.771 311.51 302.905 312.496C303.102 313.935 304.219 315.634 305.357 316.83C309.84 321.501 315.452 324.832 321.113 327.947C321.423 328.151 321.776 328.277 322.144 328.315C322.803 328.315 323.337 327.808 323.794 327.333C325.919 325.129 328.245 323.127 330.742 321.353C332.983 319.771 335.39 318.346 338.08 317.879C340.77 317.413 343.782 318.05 345.615 320.071C346.299 320.836 346.791 321.752 347.052 322.744C347.312 323.736 347.333 324.776 347.112 325.778C345.978 330.709 338.681 331.991 334.619 333.533C330.784 334.988 326.853 336.174 322.853 337.083C322.364 337.227 321.852 337.269 321.347 337.208C320.82 337.073 320.328 336.827 319.903 336.487C314.179 332.52 308.836 328.068 303.555 323.487C302.103 322.228 301.498 320.349 300.148 319.215C299.283 318.48 298.077 318.52 297.109 318.009C296.061 317.425 295.12 316.667 294.326 315.768C292.94 314.141 293.429 311.994 293.707 310.075C293.721 309.659 293.848 309.255 294.074 308.905C294.523 308.309 295.186 308.098 295.868 307.865C296.253 307.718 296.653 307.608 297.06 307.538Z" fill="#C67A6D"/>
<path d="M335.669 331.838L328.008 322.214C328.174 322.42 341.855 309.739 342.697 309.013C345.902 306.238 349.246 303.387 353.321 302.204C362.017 299.684 369.458 309.008 364.178 316.754C358.458 325.163 349.049 332.093 339.429 335.33C339.226 335.417 339.004 335.449 338.784 335.424C338.494 335.329 338.247 335.135 338.085 334.877L335.669 331.838Z" fill="#CCD2D9"/>
<path d="M348.013 450.458L348.152 460.562L342.32 460.638L342.167 449.44L348.013 450.458Z" fill="#C67A6D"/>
<path d="M390.043 440.776L393.907 450.068L388.541 452.412L384.26 442.111L390.043 440.776Z" fill="#C67A6D"/>
<path d="M388.639 452.587C388.843 452.357 389.07 452.148 389.316 451.964C389.961 451.48 395.143 448.656 395.591 449.929C395.648 450.143 395.656 450.366 395.614 450.584C395.184 454.251 394.348 457.859 393.121 461.342C392.597 462.83 391.799 464.48 390.302 464.843C389.635 464.964 388.949 464.927 388.298 464.735C387.326 464.505 386.372 464.205 385.443 463.839C385.087 463.74 384.777 463.52 384.569 463.215C384.215 462.561 384.829 461.785 385.465 461.422C386.102 461.059 386.895 460.817 387.209 460.14C387.331 459.835 387.397 459.51 387.402 459.181C387.541 456.684 387.128 454.3 388.639 452.587Z" fill="#474EBB"/>
<path d="M353.402 403.646C355.316 412.611 360.785 419.08 366.63 425.683C373.323 433.253 379.607 441.175 385.457 449.413L393.055 446.181C390.939 433.563 385.108 421.976 380.589 410.047C377.451 401.755 374.901 392.987 374.762 384.022C374.69 379.566 375.744 375.505 376.308 371.152C377.003 365.773 377.044 360.277 377.653 354.88C377.864 353.087 377.985 350.936 376.631 349.757C375.997 349.274 375.247 348.965 374.457 348.86C345.715 343.118 349.749 386.563 353.402 403.646Z" fill="#3B455A"/>
<path d="M376.85 356.552C376.891 351.605 376.346 346.669 375.228 341.85C367.038 341.401 357.786 342.329 349.677 344.015C341.761 345.664 336.825 347.43 336.767 356.243C336.664 372.452 330.491 386.276 327.824 401.836C326.278 410.89 328.954 418.99 331.917 427.386C335.314 436.99 338.202 446.767 340.568 456.675L348.798 456.626C351.488 444.129 350.39 431.143 350.618 418.34C350.78 409.442 351.667 400.338 354.85 391.992C358.355 382.816 363.398 386.469 369.194 381.144C374.82 375.962 376.823 365.966 376.85 356.552Z" fill="#3B455A"/>
<path d="M367.553 301.173C368.444 301.922 369.274 302.74 370.036 303.62L372.161 305.929C374.599 308.596 375.801 312.545 376.845 315.956C382.341 333.887 384.318 358.491 380.749 377.229C367.212 378.43 351.545 374.929 338.035 373.033C336.722 372.849 335.233 372.549 334.552 371.379C334.195 370.631 334.04 369.803 334.104 368.976C334.104 357.079 336.556 344.295 338.851 332.569C339.81 327.617 341.054 322.724 342.576 317.915C344.199 312.836 346.023 307.354 349.82 303.508C353.881 299.398 361.654 297.367 366.737 300.577C367.006 300.774 367.284 300.962 367.553 301.173Z" fill="#CCD2D9"/>
<path d="M366.08 303.674C366.322 302.057 366.565 300.439 366.81 298.819C367.132 298.664 367.444 298.487 367.743 298.29C373.391 294.592 382.858 274.725 367.81 270.279C354.142 266.244 354.855 285.52 357.522 293.588C357.948 294.963 358.614 296.252 359.49 297.394C360.109 298.165 360.248 298.017 360.158 298.913C360.068 299.81 359.235 300.756 359.042 301.67C358.806 302.446 358.857 303.281 359.186 304.022C359.515 304.763 360.101 305.36 360.835 305.705C361.659 306.188 362.625 306.372 363.569 306.225C364.659 306 365.887 304.835 366.08 303.674Z" fill="#C67A6D"/>
<path d="M354.312 286.291C355.145 288.855 356.313 291.298 357.786 293.557C357.706 288.805 358.263 284.063 359.444 279.459C359.583 279.12 359.583 278.74 359.444 278.401C359.34 278.274 359.212 278.17 359.068 278.093C358.923 278.016 358.765 277.968 358.601 277.953C352.837 276.658 352.85 281.817 354.312 286.291Z" fill="#3B455A"/>
<path d="M369.432 293.445C370.355 294.79 372.377 294.422 373.802 293.687C379.652 290.666 383.095 283.404 381.795 276.819C380.71 271.305 373.941 267.172 372.574 273.999C372.085 276.42 373.524 279.777 373.197 282.462C372.726 286.3 370.983 289.971 369.432 293.445Z" fill="#3B455A"/>
<path d="M354.37 265.218L352.349 266.043C350.892 266.63 349.838 266.827 348.337 265.949C347.888 265.702 345.038 262.914 345.728 262.331C341.142 266.173 344.912 271.776 346.624 275.739C347.781 278.428 348.023 282.185 350.627 283.933C353.492 285.856 355.455 283.426 358.059 282.337C360.35 281.378 362.833 280.858 365.169 280.002C369.042 278.585 374.806 276.093 373.52 270.808C372.032 264.64 365.94 263.12 360.471 263.568C358.363 263.792 356.304 264.348 354.37 265.218V265.218Z" fill="#3B455A"/>
<path d="M371.266 362.743C371.158 362.638 371.066 362.519 370.992 362.389C370.387 361.165 370.804 360.147 370.544 358.829C370.432 358.233 368.993 357.637 369.912 356.772C370.253 356.449 371.194 355.781 371.925 355.104C372.992 354.114 373.745 352.218 374.063 350.622C374.668 347.565 372.875 338.689 376.596 337.174C385.332 333.642 379.187 351.832 379.025 353.54C378.922 354.67 379.648 355.633 379.783 356.723C379.909 357.923 379.831 359.135 379.55 360.309C379.012 362.375 376.963 363.195 375.242 364.083C374.893 364.312 374.489 364.441 374.072 364.455C373.337 364.455 372.772 364.007 372.198 363.594C371.861 363.341 371.549 363.056 371.266 362.743V362.743Z" fill="#FEE7DE"/>
<path d="M371.879 304.306C372.26 304.71 372.69 305.333 373.3 306.032C376.518 309.699 378.522 315.692 380.087 320.233C383.448 329.956 384.607 340.305 383.48 350.531C383.483 350.91 383.34 351.276 383.081 351.553C382.762 351.748 382.381 351.817 382.014 351.745L375.088 351.266C374.59 351.275 374.097 351.154 373.659 350.916C372.847 350.374 372.793 349.231 372.802 348.258C372.867 341.886 372.114 335.531 370.561 329.351C369.826 326.432 367.836 322.99 367.629 320.045C367.45 317.395 368.598 314.361 368.427 311.461C368.324 309.717 368.176 307.13 369.216 305.606C370.579 303.567 371.13 303.508 371.879 304.306Z" fill="#CCD2D9"/>
<path d="M358.092 436.432L380.361 442.566L371.875 473.375C371.715 473.957 371.329 474.452 370.804 474.75C370.279 475.048 369.657 475.126 369.075 474.965L351.196 470.041C350.908 469.961 350.638 469.826 350.402 469.642C350.166 469.459 349.969 469.23 349.821 468.97C349.673 468.71 349.578 468.424 349.541 468.127C349.504 467.83 349.526 467.529 349.606 467.241L358.092 436.432Z" fill="#3B455A"/>
<path d="M243.799 440.475L229.109 436.441C228.104 436.164 227.25 435.5 226.735 434.594C226.219 433.688 226.085 432.614 226.361 431.609L234.43 402.378L256.695 408.51L248.626 437.741C248.347 438.742 247.682 439.592 246.777 440.105C245.872 440.617 244.801 440.751 243.799 440.475V440.475Z" fill="#3B455A"/>
<path d="M374.551 337.255L296.105 315.645C290.094 313.986 283.621 316.604 279.968 322.158L255.569 359.421L235.564 380.185C234.758 381.018 234.174 382.04 233.865 383.157L226.693 409.263C226.209 411.027 226.44 412.911 227.337 414.505C228.233 416.1 229.722 417.276 231.48 417.78L374.026 458.468C374.908 458.72 375.831 458.795 376.742 458.688C377.653 458.581 378.533 458.295 379.333 457.846C380.132 457.396 380.835 456.793 381.4 456.07C381.965 455.348 382.381 454.521 382.624 453.636L389.549 428.498C389.8 427.586 389.863 426.633 389.733 425.696L385.488 395.215L385.085 395.103L385.116 351.819C385.076 344.875 380.795 338.963 374.551 337.255Z" fill="#D34E4E"/>
<path d="M362.247 388.804L277.378 365.428C272.954 364.208 271.147 358.668 273.846 354.593L292.157 326.945C292.913 325.746 294.028 324.816 295.343 324.289C296.659 323.762 298.107 323.664 299.482 324.009L365.909 342.302C368.742 343.082 370.692 345.767 370.705 348.905L370.835 381.628C370.858 386.388 366.55 389.988 362.247 388.804Z" fill="#ACD9DD"/>
<g opacity="0.14">
<path opacity="0.14" d="M317.456 356.901C312.413 351.885 307.092 347.146 301.861 342.328C295.312 336.29 288.942 330.036 282.415 323.949C278.999 320.775 275.611 317.57 272.249 314.334L246.133 307.139C245.029 306.831 243.862 306.831 242.758 307.139L242.87 307.251C246.236 310.555 249.63 313.841 253.005 317.113C259.048 323.008 265.045 328.952 270.801 335.133C276.556 341.315 281.971 347.644 287.772 353.713C293.209 359.406 298.768 364.987 304.272 370.617L308.898 371.89C313.197 373.074 317.505 369.479 317.487 364.718L317.456 356.901Z" fill="#FFFDF0"/>
<path opacity="0.14" d="M284.305 353.162C278.388 346.851 272.803 340.257 266.823 334.021C260.844 327.786 254.747 321.887 248.615 315.916C246.437 313.795 244.263 311.67 242.093 309.542C241.954 309.717 241.815 309.896 241.69 310.089L233.235 322.851C234.907 324.68 236.624 326.473 238.269 328.306C247.974 339.109 257.639 349.997 268.217 359.944L299.147 368.461C294.14 363.382 289.16 358.339 284.305 353.162Z" fill="#FFFDF0"/>
</g>
<path d="M384.031 388.267L389.231 387.236C390.167 387.049 391.139 387.2 391.974 387.662L397.309 390.598C397.96 390.957 398.501 391.489 398.871 392.135C399.241 392.781 399.426 393.516 399.406 394.26V394.26C399.385 395.217 399.024 396.136 398.387 396.851C397.751 397.566 396.881 398.032 395.932 398.164L388.971 399.169C388.342 399.263 387.699 399.204 387.097 398.998L383.48 397.77C382.659 397.493 381.948 396.959 381.452 396.249C380.956 395.538 380.7 394.687 380.723 393.821L380.768 392.131C380.79 391.211 381.125 390.327 381.719 389.624C382.312 388.921 383.128 388.442 384.031 388.267Z" fill="#D34E4E"/>
<path d="M259.062 353.841L255.127 350.295C254.419 349.655 253.507 349.286 252.554 349.255L246.466 349.044C245.723 349.016 244.986 349.194 244.337 349.559C243.688 349.924 243.153 350.461 242.79 351.111V351.111C242.319 351.944 242.159 352.918 242.34 353.858C242.521 354.798 243.03 355.644 243.777 356.243L249.241 360.672C249.735 361.074 250.317 361.354 250.94 361.488L254.669 362.29C255.517 362.476 256.401 362.383 257.192 362.026C257.982 361.669 258.636 361.067 259.058 360.309L259.887 358.834C260.336 358.031 260.499 357.1 260.349 356.193C260.199 355.286 259.745 354.456 259.062 353.841V353.841Z" fill="#445E7A"/>
<path opacity="0.1" d="M386.923 437.862L382.579 453.632C382.336 454.516 381.92 455.343 381.355 456.066C380.79 456.788 380.088 457.392 379.288 457.841C378.489 458.29 377.608 458.577 376.697 458.684C375.787 458.791 374.863 458.716 373.982 458.464L231.436 417.775C229.677 417.272 228.188 416.095 227.292 414.501C226.396 412.906 226.165 411.023 226.648 409.259L231.019 395.363L386.923 437.862Z" fill="white"/>
<path opacity="0.1" d="M230.291 417.332L252.471 423.778L250.544 430.775L229.574 419.927L230.291 417.332Z" fill="#000100"/>
<path opacity="0.1" d="M353.573 452.843L375.757 459.288L373.83 466.29L352.86 455.438L353.573 452.843Z" fill="#000100"/>
<path d="M379.587 426.832C380.073 421.211 375.91 416.26 370.289 415.774C364.668 415.289 359.717 419.451 359.231 425.073C358.745 430.694 362.908 435.644 368.529 436.13C374.15 436.616 379.101 432.453 379.587 426.832Z" fill="#F7F7F7"/>
<path opacity="0.1" d="M371.919 432.855C373.874 432.566 375.663 431.592 376.967 430.107C376.745 431.026 376.307 431.878 375.688 432.592C375.07 433.306 374.289 433.862 373.412 434.213C372.161 434.632 370.85 434.848 369.53 434.854C368.616 434.809 367.724 434.556 366.923 434.113C366.122 433.67 365.433 433.049 364.909 432.299C365.245 432.788 367.275 432.949 367.778 432.989C369.158 433.12 370.55 433.075 371.919 432.855V432.855Z" fill="#000100"/>
<path d="M259.494 398.724C261.029 393.295 257.871 387.65 252.442 386.115C247.012 384.581 241.367 387.739 239.833 393.168C238.299 398.598 241.456 404.243 246.885 405.777C252.315 407.311 257.96 404.154 259.494 398.724Z" fill="#F7F7F7"/>
<path opacity="0.1" d="M252.154 402.826C254.109 402.538 255.899 401.564 257.202 400.078C256.982 400.998 256.544 401.85 255.925 402.565C255.307 403.28 254.525 403.835 253.647 404.184C253.045 404.404 252.421 404.562 251.787 404.655C251.122 404.783 250.446 404.84 249.77 404.825C248.855 404.78 247.963 404.527 247.162 404.085C246.36 403.643 245.67 403.024 245.144 402.275C245.484 402.759 247.51 402.92 248.017 402.961C249.396 403.093 250.787 403.048 252.154 402.826V402.826Z" fill="#000100"/>
<path d="M191.384 274.945L193.54 268.62L192.029 264.702L188.479 264.326L187.807 268.67L186.955 268.038L185.417 268.45L186.628 272.56L187.098 274.994L191.384 274.945Z" fill="#EFBFA5"/>
<path d="M163.896 309.578C165.089 308.923 166.268 308.233 167.518 307.628C171.05 305.966 174.538 304.214 177.981 302.37C180.087 301.24 182.248 300.025 183.664 298.098C184.424 296.986 185.038 295.781 185.489 294.512C188.129 287.879 190.311 281.074 192.02 274.143C190.586 273.453 186.641 271.565 185.296 272.856C184.87 273.32 184.545 273.866 184.341 274.461C183.185 277.24 182.003 280.011 180.796 282.772C179.451 285.856 178.057 288.953 176.107 291.697C175.874 292.067 175.569 292.387 175.21 292.638C174.794 292.858 174.335 292.987 173.866 293.019C166.788 294.041 162.587 291.41 155.635 293.149C154.066 293.526 149.736 298.326 148.759 299.613C147.992 300.613 147.822 301.939 147.75 303.199C147.651 304.867 147.701 306.615 148.467 308.098C149.364 309.824 151.134 310.976 153.017 311.46C154.917 311.87 156.881 311.894 158.791 311.532C160.596 311.193 162.326 310.531 163.896 309.578V309.578Z" fill="#EBB044"/>
<path d="M298.28 229.945L284.312 271.543L300.544 272.435L299.141 308.802L316.143 265.433L297.98 262.076L298.28 229.945Z" fill="#7FC5A3"/>
<path d="M342.554 273.282L319.536 289.043L323.256 295.597L305.886 313.437L330.505 297.923L327.447 289.397L342.554 273.282Z" fill="#7FC5A3"/>
<path d="M179.025 334.094L177.053 338.048L183.212 342.073L187.197 339.747L187.295 335.771L183.795 335.87L184.162 335.125L185.287 334.762L184.902 333.642L179.025 334.094Z" fill="#EBCEB1"/>
<path d="M141.855 295.579C142.651 294.346 143.744 293.333 145.033 292.634C145.719 292.247 146.488 292.029 147.275 291.997C148.103 292.017 148.915 292.236 149.641 292.634C159.127 297.421 159.561 312.922 159.642 322.012C159.696 327.84 167.769 331.04 172.045 334.075C174.018 335.474 180.495 338.768 180.517 340.956C180.517 341.404 177.989 346.335 178.079 346.371L161.48 339.889C157.392 338.293 153.089 337.432 149.032 335.68C147.49 335.016 145.921 334.223 144.948 332.86C144.195 331.802 143.881 330.502 143.603 329.238C142.128 322.965 141.018 316.612 140.277 310.21C139.901 306.991 139.462 303.723 139.99 300.523C140.261 298.763 140.896 297.079 141.855 295.579V295.579Z" fill="#D6C0B9"/>
<path d="M133.496 291.607H133.25C131.12 291.813 128.969 292.566 127.471 294.099C126.734 294.904 126.116 295.81 125.634 296.789C124.349 299.389 123.231 302.067 122.285 304.808C119.303 312.701 116.934 320.811 115.198 329.068C114.364 333.039 109.371 378.278 112.338 378.089C130.331 376.924 148.351 376.314 166.398 376.26C167.595 352.772 168.68 328.566 160.396 306.601C159.11 303.181 157.567 299.792 155.142 297.062C149.961 291.217 140.762 290.912 133.496 291.607Z" fill="#EBB044"/>
<path d="M162.619 366.002C158.137 364.688 153.287 362.667 148.607 362.712L147.114 362.739L145.841 362.842C142.703 363.093 139.185 363.429 135.504 363.877L134.962 363.94C130.26 364.966 127.203 365.365 125.221 365.468C123.327 365.959 121.482 366.627 119.712 367.463C118.868 367.878 118.05 368.342 117.26 368.853V373.963L126.225 460.786H133.577V461.683H133.622L141.69 403.449L141.726 403.118L146.155 461.683H146.195V460.786H153.587L162.956 395.573L162.619 366.002Z" fill="#CCD2D9"/>
<path d="M147.499 268.701C148.417 270.628 148.868 272.744 148.817 274.878C148.817 275.443 148.817 276.097 149.265 276.456C149.714 276.814 149.265 277.599 149.655 277.142C150.045 276.684 151.368 275.089 151.448 274.488C151.649 273.083 151.718 271.661 151.655 270.243C151.601 269.01 151.421 267.715 150.677 266.738C150.209 266.184 149.655 265.708 149.037 265.33C148.207 264.685 147.269 264.195 146.266 263.882C144.518 263.434 143.402 264.044 144.895 265.379C145.971 266.306 146.856 267.435 147.499 268.701V268.701Z" fill="#3B455A"/>
<path d="M135.307 292.221L142.559 293.293C143.045 291.172 143.376 289.019 143.55 286.851C145.684 286.591 148.207 286.026 149.046 283.812C149.276 283.087 149.395 282.331 149.4 281.571C149.579 278.448 149.76 275.325 149.942 272.202C150.068 271.128 150.003 270.04 149.749 268.988C149.203 267.195 147.634 266.065 146.074 265.321C142.102 263.425 137.369 263.246 133.522 265.442C132.442 266.008 131.529 266.849 130.878 267.881C129.905 269.548 129.91 271.673 129.95 273.659C129.98 275.491 130.014 277.326 130.053 279.163C130.093 281.27 130.277 283.704 131.846 284.901C132.666 285.533 133.765 285.699 134.459 286.501C135.638 287.931 134.926 290.294 135.307 292.221Z" fill="#EFBFA5"/>
<path d="M150.193 280.378C150.193 279.8 150.027 278.087 149.117 279.109C148.897 279.408 148.776 279.769 148.772 280.14C148.766 280.512 148.709 280.882 148.602 281.239C148.426 281.599 148.14 281.895 147.786 282.084C147.432 282.273 147.027 282.346 146.63 282.292C146.313 282.283 146.004 282.192 145.733 282.028C145.479 281.842 145.259 281.615 145.083 281.355L143.671 279.526C142.864 278.482 141.143 278.827 139.977 278.917C138.607 278.978 137.281 279.422 136.149 280.199L135.809 280.459C135.548 280.685 135.259 280.877 134.948 281.028C133.89 281.476 132.644 280.884 131.971 279.894C131.662 279.446 131.38 278.858 130.873 278.76C130.665 278.741 130.455 278.784 130.272 278.885C130.088 278.986 129.939 279.139 129.842 279.325C129.636 279.718 129.515 280.15 129.488 280.593C129.272 282.198 129.466 283.831 130.053 285.34C131.398 288.523 134.249 289.052 137.149 289.137L140.591 289.231C142.685 289.294 144.904 289.321 146.728 288.173C148.342 287.165 149.359 285.358 149.835 283.431C150.082 282.432 150.203 281.407 150.193 280.378V280.378ZM142.313 284.376C141.776 284.695 141.171 284.882 140.548 284.923C139.925 284.963 139.301 284.856 138.727 284.609C138.211 284.421 138.48 283.543 138.996 283.713C139.46 283.919 139.967 284.01 140.474 283.98C140.981 283.949 141.473 283.798 141.909 283.538C142.402 283.265 142.788 284.085 142.313 284.376Z" fill="#3B455A"/>
<path d="M151.488 263.483C151.73 262.736 151.919 261.972 152.053 261.197C151.325 261.414 150.554 261.441 149.812 261.278C149.812 260.83 149.852 260.381 149.875 259.933C149.875 259.561 144.944 259.037 144.536 258.983C140.771 258.467 137.328 257.988 133.809 259.879C130.801 261.489 128.793 264.021 128.175 267.424C127.578 270.673 128.417 275.004 130.138 277.814C130.174 276.945 129.784 274.865 130.03 274.044C130.198 273.224 130.501 272.438 130.927 271.718C131.798 270.29 133.023 269.111 134.482 268.293C136.798 267.057 139.352 266.329 141.972 266.159C144.343 265.949 147.23 265.792 149.53 266.545C150.632 266.913 150.803 267.204 151.538 266.097C151.965 265.284 152.333 264.442 152.64 263.578L151.488 263.483Z" fill="#3B455A"/>
<path d="M67.7451 416.873L74.1956 400.095L74.5497 399.929C74.5497 398.23 74.5811 396.531 74.5945 394.832C74.6782 385.867 74.7619 376.902 74.8455 367.937C74.9173 360.047 72.5146 347.765 81.157 343.632L163.3 304.383C172.427 300.025 183.373 301.581 191.433 308.39L219.489 332.089L220.861 331.444L252.522 326.961C258.361 327.016 264.068 328.707 268.993 331.843C273.919 334.98 277.866 339.435 280.385 344.703L288.104 360.841L79.5388 460.524L68.5565 437.538C67.0227 434.329 66.1596 430.842 66.0201 427.289C65.8806 423.736 66.4676 420.191 67.7451 416.873V416.873Z" fill="#474EBB"/>
<path d="M141.52 358.081L86.7155 384.263L84.5146 347.663C84.4484 346.794 84.6435 345.925 85.0748 345.168C85.5062 344.411 86.154 343.8 86.9352 343.414L125.669 324.905L141.52 358.081Z" fill="#ACD9DD"/>
<path d="M135.033 327.428L166.411 312.429C173.068 309.251 181.051 310.389 186.924 315.352L208.117 333.25L150.87 360.594L135.033 327.428Z" fill="#ACD9DD"/>
<g opacity="0.2">
<path opacity="0.2" d="M86.5539 355.799L84.9267 358.014L84.326 348.013C84.2587 347.144 84.4532 346.275 84.8847 345.517C85.3162 344.76 85.9647 344.149 86.7466 343.764L100.163 337.354C95.667 343.531 91.1037 349.64 86.5539 355.799Z" fill="#FFFFF1"/>
<path opacity="0.2" d="M88.9831 363.621C96.4421 353.392 104.071 342.141 111.342 331.755L124.023 325.927C118.931 337.447 111.172 349.237 104.367 359.757C100.279 366.087 95.9759 372.273 91.3948 378.257C89.8976 380.216 88.2569 382.125 86.6163 384.048L85.666 368.202C86.7657 366.672 87.8714 365.145 88.9831 363.621Z" fill="#FFFFF1"/>
<path opacity="0.2" d="M154.411 342.556C157.334 337.8 160.512 333.183 163.762 328.66C167.011 324.137 170.4 319.43 174.107 315.158C175.331 313.746 176.595 312.379 177.85 311.003C181.209 311.648 184.344 313.15 186.95 315.365L187.156 315.539C184.018 321.111 180.795 326.656 177.684 332.242C173.085 340.503 167.191 347.908 161.592 355.506L150.897 360.616L148.032 354.592C150.148 350.575 152.026 346.429 154.411 342.556Z" fill="#FFFFF1"/>
</g>
<path opacity="0.1" d="M209.148 391.597C208.51 390.738 207.956 389.819 207.494 388.854C202.882 379.198 208.391 366.965 219.759 361.51C223.941 359.479 228.598 358.625 233.229 359.04C226.913 363.873 222.403 370.336 219.548 377.343C218.175 380.666 217.321 384.181 217.015 387.765L209.148 391.597Z" fill="black"/>
<path opacity="0.1" d="M101.15 443.196C100.515 442.334 99.9625 441.414 99.5002 440.448C94.8921 430.797 100.164 418.663 111.28 413.356C115.373 411.369 119.937 410.559 124.464 411.016C118.314 415.767 113.952 422.164 111.218 429.116C109.9 432.422 109.095 435.909 108.828 439.458L101.15 443.196Z" fill="black"/>
<path d="M252.854 380.921C254.572 369.831 246.976 359.448 235.886 357.729C224.796 356.01 214.413 363.607 212.694 374.697C210.975 385.787 218.572 396.17 229.662 397.889C240.752 399.608 251.135 392.011 252.854 380.921Z" fill="#3B455A"/>
<path d="M243.451 382.179C245.866 376.284 243.046 369.548 237.152 367.133C231.257 364.718 224.521 367.539 222.106 373.433C219.691 379.327 222.512 386.063 228.406 388.478C234.3 390.893 241.036 388.073 243.451 382.179Z" fill="#F7F7F7"/>
<path opacity="0.1" d="M234.421 385.945C232.359 386.743 230.019 387.003 227.939 386.259C228.69 387.015 229.611 387.58 230.625 387.906C231.639 388.232 232.716 388.31 233.767 388.132C234.477 387.99 235.171 387.776 235.838 387.491C236.554 387.225 237.241 386.884 237.886 386.474C238.741 385.892 239.452 385.124 239.965 384.227C240.478 383.33 240.781 382.328 240.849 381.296C240.804 381.964 238.944 383.314 238.482 383.645C237.232 384.581 235.867 385.354 234.421 385.945V385.945Z" fill="black"/>
<path d="M138.804 443.956C146.74 436.021 146.74 423.156 138.804 415.22C130.869 407.285 118.004 407.285 110.068 415.22C102.133 423.156 102.133 436.021 110.068 443.956C118.004 451.892 130.869 451.892 138.804 443.956Z" fill="#3B455A"/>
<path d="M124.694 441.115C131.062 440.98 136.116 435.709 135.982 429.34C135.847 422.972 130.575 417.918 124.207 418.053C117.838 418.187 112.785 423.459 112.919 429.827C113.054 436.196 118.326 441.249 124.694 441.115Z" fill="#F7F7F7"/>
<path opacity="0.1" d="M126.068 437.714C124.006 438.512 121.671 438.767 119.586 438.023C120.337 438.779 121.258 439.343 122.272 439.669C123.286 439.995 124.363 440.073 125.414 439.897C126.867 439.573 128.257 439.013 129.529 438.238C130.384 437.659 131.096 436.892 131.609 435.995C132.123 435.099 132.425 434.097 132.492 433.066C132.451 433.733 130.587 435.078 130.125 435.414C128.874 436.347 127.511 437.12 126.068 437.714V437.714Z" fill="black"/>
<path opacity="0.25" d="M163.592 364.323L170.593 360.977C171.413 360.586 171.76 359.604 171.368 358.784L170.738 357.465C170.346 356.646 169.364 356.298 168.544 356.69L161.543 360.036C160.723 360.427 160.376 361.409 160.768 362.229L161.398 363.548C161.79 364.368 162.772 364.715 163.592 364.323Z" fill="black"/>
<path d="M222.605 340.068L239.89 324.047L247.896 332.69L253.589 314.562L266.655 321.73L270.241 315.199L252.114 309.506L244.946 322.573L238.415 318.991L216.069 336.482L222.605 340.068Z" fill="#474EBB"/>
<path d="M123.379 343.737L119.201 345.18L120.784 352.361L125.257 353.491L128.108 350.721L125.54 348.34L126.324 348.067L127.382 348.596L127.888 347.529L123.379 343.737Z" fill="#EFBFA5"/>
<path d="M128.69 292.212C130.121 291.886 131.61 291.928 133.02 292.333C133.781 292.535 134.481 292.916 135.064 293.445C135.642 294.038 136.068 294.762 136.306 295.556C139.731 305.61 129.192 316.987 122.885 323.541C118.851 327.727 122.374 335.67 123.302 340.834C123.75 343.21 126.05 350.1 124.539 351.678C124.216 352.014 118.967 353.749 119.003 353.838C116.565 348.42 114.125 343.002 111.683 337.584C109.89 333.582 107.407 329.964 105.735 325.863C105.103 324.312 104.533 322.649 104.793 320.994C105 319.708 105.69 318.56 106.358 317.449C109.693 311.937 113.345 306.624 117.295 301.536C119.281 298.972 121.258 296.331 123.876 294.417C125.309 293.354 126.949 292.602 128.69 292.212V292.212Z" fill="#EBB044"/>
<path d="M108.662 274.17C108.057 271.48 109.482 269.136 112.01 268.567C114.7 267.961 116.838 269.508 117.443 272.188C118.035 274.793 116.775 277.191 114.095 277.796C111.49 278.383 109.249 276.779 108.662 274.17ZM108.137 263.12L99.0107 227.614L106.156 226L113.18 261.964L108.137 263.12Z" fill="#D34E4E"/>
<path d="M450.94 320.539V336.227L430.021 404.21L434.039 477.417L424.342 479.206L401.261 391.138L402.057 365.752L411.717 313.98L450.94 320.539Z" fill="#8EC3CB"/>
<path d="M434.343 339.116L455.543 486.273L465.385 486.963L470.95 404.483L484.022 326.044L434.343 339.116Z" fill="#8EC3CB"/>
<path d="M424.341 473.206L414.363 483.776L417.244 489.121L437.838 479.242L434.039 471.417L424.341 473.206Z" fill="#3B455A"/>
<path d="M455.542 480.273L443.236 488.007L444.692 493.906L467.098 489.485L465.384 480.963L455.542 480.273Z" fill="#3B455A"/>
<path d="M437.967 210.537L467.098 203.258C467.098 203.258 480.329 221.137 487.092 266.403C493.803 311.313 492.135 378.03 492.135 378.03C492.135 378.03 405.363 360.317 391.124 357.557L419.178 269.558L437.967 210.537Z" fill="#8EC3CB"/>
<path d="M364.737 260.838L353.978 257.578L355.176 252.922L363.031 253.521L362.576 251.057L371.44 254.969L370.848 259.981L364.737 260.838Z" fill="#EFBFA5"/>
<path d="M447.459 220.955L419.283 254.673L368.876 252.641L368.224 262.635L427.207 278.232L470.941 244.718L447.459 220.955Z" fill="#8EC3CB"/>
<path d="M438.103 170.457C445.966 173.664 455.648 169.487 463.049 173.702C467.863 176.44 470.449 182.339 470.35 188.003C470.395 190.657 469.657 193.265 468.227 195.501C467.233 196.877 465.979 198.044 464.535 198.936C462.648 200.147 460.556 201.005 458.363 201.469C458.842 203.423 459.5 205.329 460.326 207.163C456.149 207.383 452.676 215.958 448.498 216.178C448.369 213.775 447.535 203.015 447.406 200.612C446.303 200.192 445.244 199.664 444.244 199.035C441.213 197.009 438.786 194.202 437.218 190.911C435.65 187.62 434.999 183.967 435.335 180.337C435.684 176.932 436.882 173.664 438.103 170.457Z" fill="#EFBFA5"/>
<path d="M439.346 173.551L465.232 178.669L463.898 199.27L472.746 195.964L479.214 163.64L444.283 151.486L426.161 155.482L423.901 164.641L434.554 178.221L439.346 173.551Z" fill="#3B455A"/>
<path d="M397.401 144.845L399.047 133.729L403.824 134.222L404.385 142.085L406.758 141.266L404.195 150.607L399.153 150.767L397.401 144.845Z" fill="#E4C9AA"/>
<path d="M449.029 220.797L411.527 197.898L406.121 147.734L396.135 148.56L389.394 209.196L428.974 247.524L449.029 220.797Z" fill="#8EC3CB"/>
<path d="M396.021 246.5L338.578 258.631C338.283 258.696 337.979 258.701 337.683 258.647C337.386 258.592 337.104 258.48 336.851 258.315C336.599 258.151 336.381 257.938 336.212 257.689C336.042 257.44 335.924 257.16 335.863 256.865L316.051 162.723C315.988 162.429 315.983 162.126 316.038 161.83C316.093 161.535 316.206 161.253 316.37 161.001C316.534 160.749 316.747 160.533 316.995 160.364C317.244 160.195 317.523 160.076 317.818 160.016L375.261 147.884C375.555 147.82 375.86 147.815 376.156 147.869C376.452 147.923 376.735 148.036 376.988 148.2C377.24 148.364 377.458 148.577 377.627 148.826C377.797 149.076 377.915 149.356 377.975 149.651L397.811 243.762C397.878 244.06 397.885 244.368 397.831 244.668C397.777 244.969 397.663 245.255 397.496 245.51C397.329 245.766 397.113 245.985 396.859 246.155C396.606 246.325 396.321 246.442 396.021 246.5V246.5Z" fill="#3B455A"/>
<path d="M375.28 153.378L319.879 165.053L337.622 249.247L393.022 237.573L375.28 153.378Z" fill="#CCD2D9"/>
<ellipse cx="355.13" cy="199.734" rx="31.2197" ry="31.2197" transform="rotate(-11.6231 355.13 199.734)" fill="#E72020" fill-opacity="0.05"/>
<ellipse cx="355.414" cy="200.027" rx="27.3172" ry="27.3172" transform="rotate(-11.6231 355.414 200.027)" fill="#E72020" fill-opacity="0.12"/>
<ellipse cx="355.481" cy="199.191" rx="23.163" ry="23.163" transform="rotate(-11.6231 355.481 199.191)" fill="#E72020" fill-opacity="0.22"/>
<g filter="url(#filter0_d)">
<ellipse cx="355.533" cy="199.445" rx="19.3025" ry="19.3025" transform="rotate(-11.6231 355.533 199.445)" fill="#E72020" fill-opacity="0.9"/>
</g>
<path d="M348.098 191.904L349.473 198.591L348.231 198.846L347.642 195.98L344.184 196.692L344.773 199.557L343.531 199.813L342.156 193.126L343.398 192.871L343.965 195.631L347.424 194.92L346.856 192.159L348.098 191.904Z" fill="white"/>
<path d="M355.427 194.737C355.444 194.82 355.462 194.939 355.48 195.095L351.478 195.918C351.625 196.279 351.868 196.541 352.207 196.704C352.551 196.859 352.943 196.891 353.382 196.801C353.942 196.686 354.366 196.406 354.653 195.962L355.444 196.566C355.272 196.887 355.024 197.153 354.703 197.366C354.381 197.578 354.001 197.729 353.562 197.819C353.001 197.935 352.485 197.925 352.012 197.79C351.54 197.654 351.145 197.414 350.828 197.067C350.516 196.713 350.309 196.285 350.205 195.782C350.103 195.285 350.123 194.816 350.264 194.375C350.411 193.927 350.662 193.55 351.018 193.245C351.373 192.939 351.802 192.735 352.305 192.631C352.802 192.529 353.268 192.55 353.702 192.693C354.141 192.828 354.51 193.074 354.81 193.431C355.114 193.78 355.319 194.215 355.427 194.737ZM352.502 193.587C352.12 193.665 351.818 193.847 351.598 194.131C351.383 194.408 351.285 194.74 351.305 195.127L354.2 194.532C354.073 194.173 353.855 193.906 353.547 193.73C353.239 193.555 352.89 193.507 352.502 193.587Z" fill="white"/>
<path d="M355.635 189.935L356.829 189.69L358.287 196.778L357.093 197.023L355.635 189.935Z" fill="white"/>
<path d="M361.62 190.715C362.117 190.613 362.582 190.63 363.015 190.767C363.454 190.902 363.826 191.144 364.13 191.493C364.434 191.842 364.639 192.275 364.746 192.791C364.852 193.307 364.835 193.788 364.694 194.235C364.553 194.676 364.307 195.045 363.956 195.343C363.612 195.639 363.192 195.838 362.695 195.941C362.007 196.082 361.416 195.965 360.92 195.589L361.429 198.063L360.235 198.309L358.805 191.354L359.941 191.12L360.079 191.789C360.227 191.507 360.431 191.275 360.693 191.095C360.961 190.914 361.27 190.787 361.62 190.715ZM362.351 194.946C362.791 194.856 363.12 194.635 363.34 194.285C363.567 193.933 363.631 193.518 363.532 193.04C363.434 192.563 363.212 192.207 362.865 191.973C362.524 191.738 362.134 191.665 361.695 191.755C361.408 191.814 361.164 191.934 360.962 192.115C360.759 192.29 360.616 192.512 360.532 192.781C360.448 193.051 360.439 193.345 360.504 193.663C360.57 193.982 360.694 194.248 360.878 194.463C361.061 194.677 361.281 194.828 361.538 194.914C361.794 194.994 362.065 195.005 362.351 194.946Z" fill="white"/>
<path d="M354.63 204.186C355.273 204.054 355.821 204.137 356.274 204.435C356.726 204.727 357.028 205.246 357.181 205.991L357.783 208.914L356.588 209.16L356.019 206.389C355.927 205.944 355.76 205.63 355.516 205.447C355.272 205.259 354.965 205.202 354.595 205.278C354.194 205.361 353.9 205.561 353.713 205.878C353.525 206.189 353.481 206.589 353.582 207.08L354.114 209.669L352.92 209.914L352.35 207.144C352.259 206.698 352.091 206.384 351.848 206.202C351.603 206.013 351.296 205.957 350.927 206.033C350.52 206.117 350.222 206.314 350.033 206.625C349.851 206.934 349.811 207.338 349.914 207.834L350.446 210.423L349.252 210.669L348.203 205.568L349.34 205.334L349.473 205.983C349.617 205.715 349.82 205.491 350.082 205.311C350.343 205.131 350.649 205.005 350.999 204.933C351.382 204.854 351.734 204.858 352.057 204.944C352.385 205.023 352.664 205.184 352.894 205.429C353.049 205.118 353.277 204.856 353.578 204.641C353.878 204.42 354.228 204.268 354.63 204.186Z" fill="white"/>
<path d="M363.632 205.082C363.649 205.165 363.667 205.284 363.685 205.44L359.683 206.263C359.83 206.624 360.073 206.886 360.412 207.049C360.756 207.204 361.148 207.236 361.587 207.146C362.147 207.031 362.571 206.751 362.858 206.307L363.649 206.911C363.477 207.232 363.229 207.498 362.908 207.71C362.586 207.923 362.206 208.074 361.767 208.164C361.206 208.28 360.69 208.27 360.217 208.134C359.745 207.999 359.35 207.759 359.033 207.412C358.721 207.058 358.514 206.63 358.41 206.126C358.308 205.63 358.328 205.161 358.469 204.72C358.616 204.272 358.867 203.895 359.223 203.59C359.578 203.284 360.007 203.08 360.51 202.976C361.007 202.874 361.473 202.895 361.907 203.038C362.346 203.173 362.715 203.419 363.015 203.776C363.319 204.125 363.524 204.56 363.632 205.082ZM360.707 203.932C360.325 204.01 360.023 204.192 359.803 204.476C359.588 204.752 359.49 205.085 359.51 205.472L362.405 204.877C362.278 204.518 362.06 204.251 361.752 204.075C361.444 203.899 361.095 203.852 360.707 203.932Z" fill="white"/>
<path d="M363.769 200.713L365.183 200.422L365.864 204.942L364.918 205.136L363.769 200.713ZM365.865 207.321C365.642 207.367 365.443 207.335 365.268 207.225C365.091 207.109 364.982 206.945 364.938 206.735C364.895 206.525 364.932 206.335 365.05 206.165C365.168 205.994 365.338 205.886 365.561 205.841C365.777 205.796 365.97 205.829 366.139 205.941C366.314 206.051 366.424 206.211 366.467 206.421C366.51 206.631 366.473 206.824 366.357 207.001C366.246 207.17 366.082 207.277 365.865 207.321Z" fill="white"/>
<path d="M369.533 246.65L362.9 248.048L363.222 249.576L369.855 248.178L369.533 246.65Z" fill="white"/>
<path d="M446.39 61.144C421.043 66.6488 408.199 54.8583 406.462 53.122C406.462 53.122 406.462 52.9476 406.364 53.0158C406.295 52.9476 406.257 53.122 406.257 53.122C404.521 54.8583 391.662 66.6488 366.329 61.144C366.329 61.144 362.439 106.721 377.21 125.313C392.981 145.171 406.295 151.176 406.364 151.093C406.432 151.009 419.852 145.254 435.51 125.313C450.159 106.63 446.39 61.144 446.39 61.144Z" fill="#3B455A"/>
<path d="M442.682 65.8299C419.693 70.7128 408.024 60.2341 406.454 58.6873C406.454 58.6873 406.454 58.5357 406.356 58.5964C406.295 58.5357 406.265 58.6873 406.265 58.6873C404.695 60.2038 393.026 70.7128 370.036 65.8299C370.036 65.8299 366.503 106.41 379.893 122.962C394.201 140.644 406.272 147.074 406.333 147.029C406.393 146.983 418.586 140.743 432.795 122.962C446.102 106.327 442.682 65.8299 442.682 65.8299Z" fill="#7FC5A3"/>
<path d="M421.217 109.284V111.718C421.216 111.954 421.261 112.188 421.351 112.406C421.44 112.624 421.572 112.823 421.738 112.991C421.904 113.158 422.101 113.291 422.319 113.383C422.537 113.474 422.77 113.521 423.006 113.522H424.909C425.145 113.514 425.377 113.46 425.592 113.362C425.806 113.265 425.999 113.126 426.16 112.953C426.321 112.78 426.446 112.578 426.528 112.357C426.61 112.135 426.647 111.9 426.638 111.665V109.216C426.491 109.264 426.338 109.289 426.183 109.291L421.217 109.284Z" fill="white"/>
<path d="M391.13 109.352L391.176 112.104C391.174 112.343 391.219 112.58 391.31 112.8C391.4 113.021 391.533 113.222 391.702 113.39C391.871 113.559 392.071 113.692 392.292 113.783C392.513 113.873 392.749 113.919 392.988 113.917H394.891C395.367 113.899 395.815 113.693 396.14 113.345C396.464 112.997 396.636 112.534 396.62 112.059V109.382H391.487C391.367 109.384 391.248 109.374 391.13 109.352V109.352Z" fill="white"/>
<path d="M425.592 93.1868L427.108 92.4817C427.317 92.379 427.483 92.2071 427.578 91.9955C427.674 91.7838 427.692 91.5456 427.632 91.3216C427.59 91.1485 427.502 90.9903 427.376 90.8645C427.25 90.7387 427.092 90.6502 426.919 90.6088L425.524 90.2752C425.305 90.2285 425.077 90.2607 424.879 90.3662L423.992 90.8439L421.611 82.3062C421.434 81.5505 421.011 80.8749 420.409 80.3852C419.806 79.8954 419.059 79.619 418.283 79.5994L399.198 79.8496C398.453 79.8899 397.741 80.1702 397.168 80.6485C396.596 81.1268 396.193 81.7775 396.021 82.5034L393.435 91.3974L392.23 90.8136C392.03 90.7151 391.802 90.691 391.585 90.7453L390.198 91.1093C390.024 91.1602 389.868 91.2579 389.747 91.3916C389.625 91.5254 389.542 91.69 389.508 91.8675C389.458 92.0937 389.486 92.33 389.588 92.538C389.69 92.7459 389.86 92.9132 390.069 93.0124L391.585 93.6797C391.72 93.742 391.869 93.7682 392.018 93.7555H392.533L389.781 99.2375C389.656 99.492 389.593 99.7728 389.599 100.056L389.697 106.683C389.698 107.073 389.834 107.45 390.081 107.752C390.329 108.053 390.673 108.259 391.055 108.336C391.151 108.344 391.247 108.344 391.343 108.336H396.468L421.141 108.26H426.1C426.254 108.257 426.407 108.234 426.555 108.192C426.901 108.078 427.202 107.856 427.412 107.559C427.622 107.261 427.731 106.904 427.723 106.539L427.624 100.147C427.618 99.9179 427.569 99.6917 427.48 99.4801L424.849 93.3612H425.137C425.302 93.3483 425.46 93.2877 425.592 93.1868V93.1868ZM394.072 104.424C393.574 104.452 393.078 104.331 392.649 104.076C392.219 103.82 391.876 103.442 391.664 102.99C391.451 102.538 391.379 102.032 391.456 101.539C391.534 101.045 391.757 100.586 392.097 100.221C392.438 99.855 392.88 99.5997 393.367 99.4875C393.853 99.3753 394.363 99.4114 394.829 99.5911C395.295 99.7708 395.696 100.086 395.982 100.496C396.267 100.906 396.424 101.392 396.43 101.891C396.453 102.54 396.217 103.17 395.775 103.645C395.333 104.12 394.721 104.4 394.072 104.424ZM418.897 92.3376L398.296 92.6788C398.046 92.6929 397.798 92.6453 397.571 92.5402C397.345 92.435 397.148 92.2756 396.998 92.0761C396.848 91.8766 396.749 91.6431 396.711 91.3964C396.673 91.1497 396.696 90.8974 396.779 90.6619L399.115 83.8379C399.227 83.5411 399.426 83.2849 399.685 83.1024C399.945 82.9199 400.253 82.8195 400.57 82.8143L416.721 82.5716C417.056 82.5568 417.387 82.6537 417.661 82.8472C417.936 83.0407 418.138 83.3198 418.237 83.6407L420.39 90.3662C420.463 90.5972 420.48 90.8422 420.438 91.0808C420.397 91.3194 420.299 91.5447 420.153 91.7377C420.007 91.9307 419.816 92.0859 419.598 92.1903C419.379 92.2946 419.139 92.3452 418.897 92.3376ZM425.364 100.822C425.35 101.291 425.197 101.745 424.927 102.128C424.656 102.511 424.279 102.806 423.843 102.977C423.406 103.148 422.929 103.187 422.47 103.089C422.011 102.992 421.591 102.761 421.262 102.427C420.933 102.093 420.71 101.67 420.619 101.209C420.528 100.749 420.574 100.273 420.752 99.8386C420.93 99.4046 421.231 99.0322 421.618 98.7677C422.005 98.5031 422.462 98.358 422.931 98.3503C423.253 98.3513 423.572 98.4162 423.87 98.5412C424.167 98.6663 424.437 98.849 424.663 99.0788C424.889 99.3087 425.068 99.5811 425.188 99.8803C425.309 100.18 425.368 100.5 425.364 100.822V100.822Z" fill="white"/>
<defs>
<filter id="filter0_d" x="331.854" y="175.767" width="47.3571" height="47.3571" filterUnits="userSpaceOnUse" color-interpolation-filters="sRGB">
<feFlood flood-opacity="0" result="BackgroundImageFix"/>
<feColorMatrix in="SourceAlpha" type="matrix" values="0 0 0 0 0 0 0 0 0 0 0 0 0 0 0 0 0 0 127 0"/>
<feOffset/>
<feGaussianBlur stdDeviation="0.441485"/>
<feColorMatrix type="matrix" values="0 0 0 0 0 0 0 0 0 0 0 0 0 0 0 0 0 0 0.25 0"/>
<feBlend mode="normal" in2="BackgroundImageFix" result="effect1_dropShadow"/>
<feBlend mode="normal" in="SourceGraphic" in2="effect1_dropShadow" result="shape"/>
</filter>
</defs>
</svg>
