<?xml version="1.0" standalone="no"?>
<!DOCTYPE svg PUBLIC "-//W3C//DTD SVG 20010904//EN"
 "http://www.w3.org/TR/2001/REC-SVG-20010904/DTD/svg10.dtd">
<svg version="1.0" xmlns="http://www.w3.org/2000/svg"
 width="512.000000pt" height="512.000000pt" viewBox="0 0 512.000000 512.000000"
 preserveAspectRatio="xMidYMid meet">
<metadata>
Created by potrace 1.11, written by Peter Selinger 2001-2013
</metadata>
<g transform="translate(0.000000,512.000000) scale(0.100000,-0.100000)"
fill="#000000" stroke="none">
<path d="M493 5113 c9 -8 47 -11 47 -4 0 5 -11 9 -25 9 -14 0 -24 -2 -22 -5z"/>
<path d="M547 5106 c-3 -8 -18 -13 -36 -11 -17 1 -29 -1 -26 -5 6 -10 -24 -22
-35 -15 -4 3 -13 -2 -20 -10 -6 -7 -18 -11 -26 -8 -8 3 -14 0 -14 -5 0 -6 9
-9 20 -7 11 2 20 -1 20 -6 0 -5 -6 -9 -12 -8 -21 4 -68 -23 -61 -34 3 -6 1 -7
-5 -3 -6 3 -16 -2 -22 -11 -11 -17 -11 -17 -6 0 4 12 2 16 -5 11 -6 -4 -14 -2
-18 4 -4 6 -10 5 -18 -3 -10 -10 -9 -14 3 -19 10 -4 13 -2 8 6 -4 7 -3 8 5 4
19 -12 3 -25 -24 -20 -14 2 -25 0 -25 -5 0 -6 -8 -8 -17 -5 -15 5 -15 4 -3 -4
9 -7 18 -8 26 -1 8 7 15 6 20 -3 4 -7 4 -10 0 -6 -10 8 -47 -23 -40 -34 3 -5
10 -5 16 -2 7 4 8 2 4 -5 -6 -9 -11 -9 -22 0 -10 8 -14 8 -14 0 0 -6 -7 -11
-16 -11 -10 0 -7 7 12 23 20 17 23 24 11 24 -9 0 -14 -4 -12 -8 6 -8 -25 -23
-40 -20 -5 1 -2 -6 8 -16 15 -18 15 -21 1 -39 -8 -10 -13 -13 -9 -7 3 7 1 21
-5 30 -11 17 -11 17 -6 0 4 -13 0 -20 -14 -24 -11 -3 -20 -10 -20 -15 0 -5 4
-7 8 -4 4 2 14 0 22 -6 12 -8 11 -9 -3 -4 -12 4 -17 2 -14 -6 2 -7 12 -12 22
-11 12 1 14 -2 6 -10 -7 -7 -15 -6 -26 3 -8 7 -16 10 -16 6 -5 -23 -3 -32 6
-39 6 -5 4 -7 -5 -4 -8 2 -15 10 -15 17 0 7 -7 15 -15 17 -13 4 -13 3 0 -6 14
-10 7 -16 -13 -12 -5 1 -6 -3 -2 -9 3 -6 11 -8 16 -5 5 4 9 1 9 -4 0 -6 -7
-11 -15 -11 -8 0 -15 -5 -15 -11 0 -5 -6 -7 -13 -4 -6 4 -3 -1 7 -9 17 -14 17
-16 3 -16 -18 0 -13 -29 7 -42 6 -4 1 -6 -11 -6 -11 1 -19 7 -16 14 2 7 -1 15
-8 20 -7 4 -10 3 -5 -4 8 -13 -24 -53 -35 -46 -5 3 -7 -930 -6 -2073 2 -2020
3 -2078 21 -2081 11 -3 16 0 11 7 -3 6 -12 8 -18 4 -7 -4 -6 0 2 10 7 9 19 17
25 16 7 0 7 -2 -1 -6 -10 -3 -10 -7 0 -18 7 -7 15 -11 19 -8 4 2 5 -3 1 -12
-4 -12 -8 -13 -13 -5 -5 8 -10 9 -14 2 -6 -10 30 -28 47 -24 5 1 6 -2 2 -8 -3
-6 -11 -8 -16 -5 -10 7 -7 -24 4 -43 5 -7 4 -12 -2 -12 -6 0 -11 -4 -11 -10 0
-5 7 -7 15 -4 18 7 20 -7 3 -25 -9 -9 -9 -12 -1 -7 6 3 13 1 15 -6 3 -7 7 -5
11 6 5 11 3 15 -5 10 -7 -4 -8 -3 -4 4 4 6 14 8 22 5 9 -3 12 -9 7 -12 -4 -3
-14 -17 -22 -31 -13 -22 -12 -24 1 -13 8 7 18 10 21 6 4 -3 12 -2 20 3 7 5 4
0 -8 -10 -20 -19 -20 -19 10 -12 17 4 25 3 19 -1 -9 -6 -12 -42 -5 -62 0 -2
12 4 25 12 20 14 24 14 22 2 -1 -8 -6 -18 -11 -22 -4 -4 -5 -2 0 6 6 10 4 12
-4 7 -9 -6 -8 -13 6 -29 10 -12 18 -23 19 -25 1 -2 4 4 8 13 3 9 2 13 -4 10
-6 -4 -7 1 -3 11 4 11 8 13 11 6 2 -7 7 -10 11 -8 4 3 8 -1 8 -9 0 -8 -4 -12
-9 -9 -4 3 -8 1 -8 -3 0 -5 9 -14 20 -21 12 -7 18 -17 14 -23 -4 -8 -1 -8 13
0 18 9 20 7 17 -14 -1 -14 2 -28 7 -31 5 -3 8 0 7 7 -2 6 3 14 11 17 10 3 13
-1 9 -15 -4 -14 -1 -20 11 -19 8 0 16 -4 16 -11 0 -6 3 -15 7 -19 4 -3 6 3 3
14 -2 15 0 19 11 15 7 -3 12 -9 9 -13 -3 -4 3 -14 13 -21 15 -12 16 -12 4 2
-11 14 -7 16 27 15 28 -1 37 -4 30 -12 -6 -8 -4 -14 7 -18 23 -9 31 -7 15 3
-9 6 0 8 26 7 32 -1 39 -5 40 -21 1 -11 -1 -14 -4 -7 -3 6 -9 12 -14 12 -6 0
-7 -5 -3 -12 4 -7 3 -8 -5 -4 -6 4 -9 12 -6 17 4 5 3 9 -2 9 -12 -1 -43 -26
-43 -36 0 -4 5 -3 12 4 16 16 28 15 28 -3 0 -12 260 -14 2040 -14 1318 0 2040
3 2040 9 0 6 5 10 11 10 5 0 8 -4 5 -8 -3 -5 1 -9 9 -9 22 0 18 12 -7 26 -13
6 -15 9 -5 7 16 -5 21 4 18 31 -1 6 3 14 9 18 6 4 7 -1 3 -11 -4 -12 -3 -15 5
-10 7 4 12 3 12 -2 0 -6 7 -12 15 -16 13 -5 14 -2 4 17 -12 22 -12 22 9 4 20
-19 21 -18 16 5 -2 12 -2 17 2 11 3 -7 10 -13 15 -13 6 0 7 4 4 10 -3 5 -2 10
4 10 5 0 12 -6 15 -12 3 -10 8 -9 18 3 7 9 21 15 31 13 9 -1 15 2 11 7 -3 5 0
9 7 9 7 0 9 3 6 6 -4 4 -13 1 -22 -6 -13 -11 -14 -10 -10 1 3 8 18 23 33 34
21 15 24 15 13 2 -8 -10 -9 -17 -3 -17 6 0 14 5 17 10 4 6 12 7 18 3 9 -5 9
-3 0 8 -7 9 -9 20 -3 29 8 13 11 13 22 1 9 -10 10 -12 1 -7 -9 5 -11 2 -6 -10
5 -15 7 -15 15 0 5 9 13 14 19 11 5 -4 9 -1 9 5 0 7 -7 10 -15 6 -8 -3 -15 -1
-15 4 0 6 7 10 16 10 11 0 15 6 11 20 -3 11 -1 18 4 15 4 -3 14 3 21 15 7 11
17 20 22 20 5 0 1 -9 -9 -20 -17 -19 -33 -61 -17 -45 4 4 7 12 7 18 1 7 7 11
14 9 7 -1 10 2 7 7 -4 5 -1 13 5 16 5 4 8 14 5 22 -4 10 -2 13 8 10 11 -5 14
1 11 22 -2 19 1 28 11 28 10 0 11 -4 4 -12 -8 -9 -6 -14 5 -19 10 -4 14 -2 9
5 -4 6 0 15 7 20 10 6 10 9 2 9 -7 0 -12 10 -11 23 1 13 8 24 15 24 10 0 10
-4 3 -11 -13 -13 -13 -26 0 -26 6 0 9 6 8 13 -2 6 3 11 10 9 8 -1 11 2 7 8 -3
5 -3 16 2 23 12 20 14 47 2 47 -5 0 -8 -4 -4 -9 10 -18 -13 -21 -26 -4 -9 10
-9 14 -2 10 15 -9 33 20 33 53 0 6 11 10 25 10 14 0 25 -5 25 -11 0 -5 -5 -7
-12 -3 -7 4 -8 3 -4 -4 4 -7 2 -12 -3 -12 -6 0 -11 5 -11 11 0 5 -5 7 -11 3
-8 -5 -8 -9 1 -14 9 -6 9 -9 -1 -12 -9 -3 -7 -7 6 -12 11 -4 16 -4 12 0 -4 4
2 13 13 21 19 13 19 41 19 2086 0 1437 -3 2077 -10 2087 -9 12 -10 12 -5 -3 4
-12 2 -17 -6 -14 -7 2 -12 10 -10 16 1 7 -2 10 -8 6 -5 -3 -10 -1 -10 4 0 6 6
11 13 11 6 0 4 5 -6 11 -25 15 -31 5 -16 -23 7 -12 12 -27 11 -31 -1 -5 3 -5
9 -1 8 5 9 3 4 -6 -6 -9 -4 -12 7 -8 8 4 15 1 15 -7 0 -10 -6 -11 -24 -2 -12
5 -24 14 -24 19 -1 4 -3 13 -4 18 -1 6 -3 16 -4 23 -1 8 -4 7 -11 -3 -15 -22
-12 -7 6 36 12 30 13 36 2 27 -11 -9 -17 -8 -27 9 -7 11 -8 17 -2 13 6 -3 11
1 11 10 0 10 5 13 12 9 7 -4 8 -3 4 5 -6 9 -11 9 -24 -1 -13 -11 -15 -10 -10
9 7 26 -9 42 -18 19 -3 -9 -11 -16 -16 -16 -7 0 -7 4 0 13 18 21 9 63 -13 65
-16 1 -17 -1 -5 -8 8 -5 10 -10 4 -10 -18 0 -24 12 -13 26 7 8 6 14 -2 20 -7
4 -9 3 -6 -3 7 -11 -22 -28 -31 -18 -3 3 0 5 6 5 7 0 12 9 12 20 0 12 -7 20
-16 20 -14 0 -15 -2 -3 -17 13 -16 12 -17 -4 -4 -14 11 -15 16 -5 29 10 13 10
14 1 8 -7 -4 -13 -2 -13 3 0 6 -7 11 -16 11 -14 0 -15 -2 -3 -17 13 -16 12
-17 -4 -4 -12 10 -15 17 -7 25 20 20 10 29 -12 10 -13 -10 -17 -12 -10 -4 20
23 14 35 -9 14 -15 -14 -20 -15 -17 -4 2 8 -3 14 -9 13 -7 -2 -13 2 -13 7 0
14 13 13 28 -2 9 -9 12 -9 12 -1 0 17 -41 27 -50 13 -5 -8 -9 -5 -13 9 -4 15
-10 19 -24 15 -15 -5 -15 -4 -3 5 9 6 18 7 24 1 15 -15 22 -12 23 12 1 13 -1
18 -5 12 -10 -14 -52 -15 -52 -1 0 8 -3 8 -12 -1 -7 -7 -17 -12 -23 -12 -5 0
-3 5 5 10 11 7 11 10 2 10 -7 0 -10 4 -7 10 3 6 -1 7 -9 4 -9 -3 -14 -10 -11
-14 3 -5 0 -12 -6 -16 -7 -4 -9 -3 -6 3 4 6 0 16 -8 23 -9 7 -13 21 -10 31 4
11 2 19 -3 19 -19 0 -21 -14 -6 -44 12 -25 12 -28 0 -13 -11 14 -15 15 -20 5
-3 -7 -3 -2 0 12 5 19 3 22 -6 14 -12 -12 -60 3 -60 20 0 4 11 1 25 -8 23 -15
25 -15 34 2 8 15 4 17 -32 17 -23 0 -48 -4 -56 -9 -10 -6 -12 -6 -7 2 5 9
-502 12 -1978 11 -1652 0 -1985 -2 -1989 -13z m-22 -30 c17 7 29 -12 14 -22
-8 -4 -9 -3 -5 4 5 9 -3 11 -30 7 -34 -4 -35 -3 -18 10 10 7 20 10 22 5 2 -5
9 -7 17 -4z m76 -9 c-10 -9 -11 -8 -5 6 3 10 9 15 12 12 3 -3 0 -11 -7 -18z
m-147 -18 c-3 -5 -10 -7 -15 -3 -5 3 -7 10 -3 15 3 5 10 7 15 3 5 -3 7 -10 3
-15z m4131 11 c3 -5 1 -10 -4 -10 -6 0 -11 5 -11 10 0 6 2 10 4 10 3 0 8 -4
11 -10z m-4070 -20 c3 -6 -1 -7 -9 -4 -18 7 -21 14 -7 14 6 0 13 -4 16 -10z
m-450 -394 c7 3 16 1 20 -5 4 -7 0 -8 -11 -4 -12 5 -15 3 -9 -6 6 -10 3 -11
-14 -2 -12 7 -21 8 -21 2 0 -5 6 -11 12 -13 7 -3 3 -7 -9 -10 -14 -4 -20 -1
-19 7 3 20 30 49 34 37 2 -6 9 -9 17 -6z m-40 -66 c3 -5 1 -10 -4 -10 -6 0
-11 5 -11 10 0 6 2 10 4 10 3 0 8 -4 11 -10z m5068 3 c3 -5 -5 -8 -18 -8 -13
0 -21 3 -18 8 2 4 10 7 18 7 8 0 16 -3 18 -7z m-1 -4030 c-6 -2 -9 -10 -6 -15
4 -7 2 -8 -5 -4 -13 9 -5 26 12 25 9 0 8 -2 -1 -6z m-5062 -7 c0 -3 -4 -8 -10
-11 -5 -3 -10 -1 -10 4 0 6 5 11 10 11 6 0 10 -2 10 -4z m5025 -136 c-3 -5
-12 -10 -18 -10 -7 0 -6 4 3 10 19 12 23 12 15 0z m-4951 -16 c3 -8 2 -12 -4
-9 -6 3 -10 10 -10 16 0 14 7 11 14 -7z m4866 -88 c0 -2 -7 -7 -16 -10 -8 -3
-12 -2 -9 4 6 10 25 14 25 6z m-4775 -26 c-3 -5 -12 -10 -18 -10 -7 0 -6 4 3
10 19 12 23 12 15 0z m-15 -24 c0 -3 -4 -8 -10 -11 -5 -3 -10 -1 -10 4 0 6 5
11 10 11 6 0 10 -2 10 -4z m4714 -34 c3 -5 -1 -9 -9 -9 -8 0 -12 4 -9 9 3 4 7
8 9 8 2 0 6 -4 9 -8z m-4604 -47 c0 -12 -19 -12 -23 0 -4 9 -1 12 9 8 7 -3 14
-7 14 -8z m4469 -65 c-12 -34 -15 -36 -23 -14 -3 8 -2 13 3 10 5 -3 11 3 14
14 3 11 8 20 11 20 3 0 0 -13 -5 -30z m-4389 8 c0 -4 -7 -8 -15 -8 -8 0 -15 4
-15 8 0 5 7 9 15 9 8 0 15 -4 15 -9z m135 -38 c3 -5 1 -10 -4 -10 -6 0 -11 5
-11 10 0 6 2 10 4 10 3 0 8 -4 11 -10z m4102 -26 c-3 -3 -12 -4 -19 -1 -8 3
-5 6 6 6 11 1 17 -2 13 -5z m-27 -28 c0 -2 -7 -6 -15 -10 -8 -3 -15 -1 -15 4
0 6 7 10 15 10 8 0 15 -2 15 -4z"/>
<path d="M4660 5080 c0 -5 5 -10 11 -10 5 0 7 5 4 10 -3 6 -8 10 -11 10 -2 0
-4 -4 -4 -10z"/>
<path d="M367 5053 c-14 -14 -7 -32 10 -26 11 4 13 8 5 11 -7 2 -10 8 -6 13 6
10 0 12 -9 2z"/>
<path d="M337 5023 c-4 -3 -7 -11 -7 -17 0 -6 5 -5 12 2 6 6 9 14 7 17 -3 3
-9 2 -12 -2z"/>
<path d="M5035 4740 c-3 -6 1 -7 9 -4 18 7 21 14 7 14 -6 0 -13 -4 -16 -10z"/>
<path d="M35 435 c0 -13 3 -21 8 -18 9 6 9 30 0 36 -5 3 -8 -5 -8 -18z"/>
<path d="M232 156 c7 -8 15 -12 17 -11 5 6 -10 25 -20 25 -5 0 -4 -6 3 -14z"/>
<path d="M427 50 c3 -11 9 -20 15 -20 5 0 4 9 -2 20 -6 11 -12 20 -14 20 -2 0
-2 -9 1 -20z"/>
<path d="M4630 40 c0 -6 4 -9 9 -6 5 4 12 1 14 -4 3 -6 4 -5 3 2 -3 15 -26 23
-26 8z"/>
</g>
</svg>
